# xmcd
# 
# Track frame offsets:
#   150
#   13639
#   25356
#   40326
#   64276
#   75121
#   85671
#   93951
#   107440
#   119157
#   134127
#   158077
#   168922
#   179413
# 
# Disc length: 2502 seconds
# 
# Revision: 0
# Processed by: cddbd v1.5.2PL0 Copyright (c) Steve Scherf et al.
# Submitted via: VOLTOCDX V1.0.24 
# 
DISCID=ae09c40e
DTITLE=Various Artist - KARAOKE CHRISTMAS
DYEAR=2011
DGENRE=Karaoke
TTITLE0=Running On Empty - Jackson Browne
TTITLE1=The Road - Jackson Browne
TTITLE2=Rosie - Jackson Browne
TTITLE3=You Love The Thunder - Jackson Browne
TTITLE4=Cocaine - Jackson Browne
TTITLE5=Shaky Town - Jackson Browne
TTITLE6=Love Needs A Heart - Jackson Browne
TTITLE7=Nothing But Time - Jackson Browne
TTITLE8=Here Come Those Tears Again - Jackson Browne
TTITLE9=Stay - Jackson Browne
TTITLE10=In The Shape Of A Heart - Jackson Browne
TTITLE11=
TTITLE12=
TTITLE13=
EXTD=
EXTT0=
EXTT1=
EXTT2=
EXTT3=
EXTT4=
EXTT5=
EXTT6=
EXTT7=
EXTT8=
EXTT9=
EXTT10=
EXTT11=
EXTT12=
EXTT13=
PLAYORDER=
